<svg width="41" height="40" viewBox="0 0 41 40" fill="none" xmlns="http://www.w3.org/2000/svg">
<g id="camera">
<path id="Vector" d="M32.1666 10.8334H30.0333L29.4999 9.16668C29.1542 8.18873 28.5128 7.34252 27.6648 6.74528C26.8167 6.14805 25.8038 5.82935 24.7666 5.83335H16.2333C15.1858 5.83531 14.1655 6.16616 13.3162 6.77919C12.4669 7.39223 11.8316 8.2565 11.4999 9.25002L10.9666 10.9167H8.83325C7.50717 10.9167 6.2354 11.4435 5.29772 12.3811C4.36004 13.3188 3.83325 14.5906 3.83325 15.9167V29.25C3.83325 30.5761 4.36004 31.8479 5.29772 32.7856C6.2354 33.7232 7.50717 34.25 8.83325 34.25H32.1666C33.4927 34.25 34.7644 33.7232 35.7021 32.7856C36.6398 31.8479 37.1666 30.5761 37.1666 29.25V15.9167C37.1776 15.2531 37.0565 14.5939 36.8102 13.9777C36.5639 13.3614 36.1973 12.8003 35.7319 12.3272C35.2665 11.854 34.7116 11.4782 34.0994 11.2218C33.4873 10.9653 32.8303 10.8333 32.1666 10.8334ZM33.8333 29.1667C33.8333 29.6087 33.6577 30.0326 33.3451 30.3452C33.0325 30.6578 32.6086 30.8333 32.1666 30.8333H8.83325C8.39122 30.8333 7.9673 30.6578 7.65474 30.3452C7.34218 30.0326 7.16659 29.6087 7.16659 29.1667V15.8334C7.16659 15.3913 7.34218 14.9674 7.65474 14.6548C7.9673 14.3423 8.39122 14.1667 8.83325 14.1667H12.1666C12.53 14.1857 12.8897 14.0851 13.1906 13.8805C13.4916 13.6758 13.7173 13.3783 13.8333 13.0334L14.7333 10.3C14.8451 9.96898 15.0581 9.68146 15.3422 9.47809C15.6263 9.27472 15.9672 9.16578 16.3166 9.16668H24.8499C25.1993 9.16578 25.5402 9.27472 25.8243 9.47809C26.1084 9.68146 26.3214 9.96898 26.4333 10.3L27.3333 13.0334C27.4402 13.3513 27.6406 13.6295 27.9082 13.8317C28.1758 14.0339 28.4982 14.1507 28.8333 14.1667H32.1666C32.6086 14.1667 33.0325 14.3423 33.3451 14.6548C33.6577 14.9674 33.8333 15.3913 33.8333 15.8334V29.1667ZM20.4999 14.1667C19.1814 14.1667 17.8924 14.5577 16.7961 15.2902C15.6998 16.0228 14.8453 17.064 14.3407 18.2821C13.8361 19.5003 13.7041 20.8407 13.9613 22.134C14.2186 23.4272 14.8535 24.615 15.7859 25.5474C16.7182 26.4797 17.9061 27.1147 19.1993 27.3719C20.4925 27.6292 21.833 27.4971 23.0511 26.9925C24.2693 26.488 25.3105 25.6335 26.043 24.5371C26.7756 23.4408 27.1666 22.1519 27.1666 20.8333C27.1666 19.0652 26.4642 17.3695 25.214 16.1193C23.9637 14.8691 22.268 14.1667 20.4999 14.1667ZM20.4999 24.1667C19.8406 24.1667 19.1962 23.9712 18.648 23.6049C18.0999 23.2386 17.6726 22.718 17.4203 22.109C17.168 21.4999 17.102 20.8297 17.2306 20.183C17.3593 19.5364 17.6767 18.9425 18.1429 18.4763C18.6091 18.0102 19.203 17.6927 19.8496 17.5641C20.4962 17.4354 21.1664 17.5015 21.7755 17.7538C22.3846 18.006 22.9052 18.4333 23.2715 18.9815C23.6378 19.5296 23.8333 20.1741 23.8333 20.8333C23.8333 21.7174 23.4821 22.5653 22.8569 23.1904C22.2318 23.8155 21.384 24.1667 20.4999 24.1667Z" fill="white"/>
</g>
</svg>
