<svg width="41" height="40" viewBox="0 0 41 40" fill="none" xmlns="http://www.w3.org/2000/svg">
<g id="home">
<path id="Vector" d="M10.5001 31.6666H15.5001V23.3333C15.5001 22.8611 15.6601 22.4655 15.9801 22.1466C16.3001 21.8278 16.6956 21.6678 17.1667 21.6666H23.8334C24.3056 21.6666 24.7017 21.8266 25.0217 22.1466C25.3417 22.4666 25.5012 22.8622 25.5001 23.3333V31.6666H30.5001V16.6666L20.5001 9.16665L10.5001 16.6666V31.6666ZM7.16675 31.6666V16.6666C7.16675 16.1389 7.28508 15.6389 7.52175 15.1666C7.75841 14.6944 8.08453 14.3055 8.50008 14L18.5001 6.49998C19.0834 6.05554 19.7501 5.83331 20.5001 5.83331C21.2501 5.83331 21.9167 6.05554 22.5001 6.49998L32.5001 14C32.9167 14.3055 33.2434 14.6944 33.4801 15.1666C33.7167 15.6389 33.8345 16.1389 33.8334 16.6666V31.6666C33.8334 32.5833 33.5067 33.3683 32.8534 34.0217C32.2001 34.675 31.4156 35.0011 30.5001 35H23.8334C23.3612 35 22.9656 34.84 22.6467 34.52C22.3279 34.2 22.1679 33.8044 22.1667 33.3333V25H18.8334V33.3333C18.8334 33.8055 18.6734 34.2016 18.3534 34.5216C18.0334 34.8416 17.6379 35.0011 17.1667 35H10.5001C9.58341 35 8.79897 34.6739 8.14675 34.0217C7.49453 33.3694 7.16786 32.5844 7.16675 31.6666Z" fill="white"/>
</g>
</svg>
